<svg width="24" height="25" viewBox="0 0 24 25" fill="none" xmlns="http://www.w3.org/2000/svg">
<path d="M22 12.7123V14.2968C22 18.3601 22 20.3919 20.8284 21.6542C19.6569 22.9166 17.7712 22.9166 14 22.9166H10C6.22876 22.9166 4.34315 22.9166 3.17157 21.6542C2 20.3919 2 18.3601 2 14.2968V12.7123C2 10.3286 2 9.13667 2.5192 8.14861C3.0384 7.16055 3.98695 6.54733 5.88403 5.32089L7.88403 4.02791C9.88939 2.73147 10.8921 2.08325 12 2.08325C13.1079 2.08325 14.1106 2.73147 16.116 4.02791L18.116 5.32088C20.0131 6.54733 20.9616 7.16055 21.4808 8.14861" stroke="#11668D" stroke-width="1.5" stroke-linecap="round"/>
</svg>
