<svg width="32" height="32" viewBox="0 0 32 32" fill="none" xmlns="http://www.w3.org/2000/svg">
<path fill-rule="evenodd" clip-rule="evenodd" d="M12.0584 11.3539C12.0584 9.19392 13.8264 7.43696 16 7.43696C18.1736 7.43696 19.9416 9.19392 19.9416 11.3539C19.9416 13.5128 18.1736 15.2698 16 15.2698C13.8264 15.2698 12.0584 13.5128 12.0584 11.3539ZM10.6123 11.3539C10.6123 14.3048 13.0294 16.7067 16 16.7067C18.9706 16.7067 21.3867 14.3048 21.3867 11.3539C21.3867 8.40194 18.9706 6 16 6C13.0294 6 10.6123 8.40194 10.6123 11.3539ZM14.9776 25.985C15.3127 25.995 15.6538 26 16 26C19.4345 26 24 25.619 24 22.3301C24 18.6392 17.9784 18.6392 16 18.6392C12.5655 18.6392 8 19.0202 8 22.3101C8 23.2951 8.46088 24.624 10.6566 25.363C11.036 25.493 11.4445 25.288 11.5733 24.913C11.7011 24.538 11.4989 24.131 11.1205 24.004C9.61811 23.4981 9.44503 22.7951 9.44503 22.3101C9.44503 20.8271 11.6508 20.0751 16 20.0751C20.3492 20.0751 22.555 20.8341 22.555 22.3301C22.555 23.8121 20.3492 24.563 16 24.563C15.6679 24.563 15.3409 24.559 15.0189 24.55C14.6325 24.553 14.2883 24.851 14.2772 25.247C14.2652 25.644 14.5791 25.975 14.9776 25.985Z" fill="#8F9BB3"/>
</svg>
