<svg width="20" height="21" viewBox="0 0 20 21" fill="none" xmlns="http://www.w3.org/2000/svg">
<g clip-path="url(#clip0_209_929)">
<path d="M17.5708 16.1233L17.571 16.1235C17.5786 16.1362 17.5828 16.1506 17.583 16.1654C17.5832 16.1802 17.5795 16.1947 17.5723 16.2076C17.565 16.2205 17.5545 16.2312 17.5418 16.2387C17.529 16.2461 17.5145 16.25 17.4997 16.25H2.50029C2.48552 16.25 2.47101 16.2461 2.45826 16.2387C2.44551 16.2312 2.43497 16.2205 2.42772 16.2076C2.42047 16.1947 2.41677 16.1802 2.417 16.1654C2.41724 16.1506 2.42139 16.1362 2.42904 16.1235L2.42919 16.1233C3.48697 14.3751 4.05806 12.3758 4.08328 10.3326L4.08334 10.3326V10.3234V7.00505C4.08334 5.43585 4.7067 3.93092 5.81629 2.82133C6.92588 1.71174 8.43081 1.08838 10 1.08838C11.5692 1.08838 13.0741 1.71174 14.1837 2.82133C15.2933 3.93092 15.9167 5.43585 15.9167 7.00505V10.3284H15.9166L15.9167 10.338C15.9429 12.3793 16.5139 14.3767 17.5708 16.1233Z" stroke="#11668D" stroke-width="1.5"/>
<path d="M10.8392 20.1876C11.1884 20.0631 11.5056 19.8626 11.7678 19.6004C12.03 19.3382 12.2306 19.021 12.355 18.6718H7.64502C7.75522 18.981 7.92525 19.2656 8.14541 19.5091C8.36557 19.7527 8.63155 19.9505 8.92816 20.0912C9.22476 20.232 9.54619 20.3129 9.87409 20.3295C10.202 20.346 10.5299 20.2978 10.8392 20.1876Z" fill="#11668D"/>
</g>
<defs>
<clipPath id="clip0_209_929">
<rect width="20" height="20" fill="white" transform="translate(0 0.333374)"/>
</clipPath>
</defs>
</svg>
